HIERARCHY
ROOT Hips
{
	OFFSET	0.00	0.00	0.00
	CHANNELS 6 Xposition Yposition Zposition Zrotation Xrotation Yrotation
	JOINT LeftUpLeg
	{
		OFFSET	 0.126116	-0.065224	 0.014019
		CHANNELS 3 Zrotation Xrotation Yrotation
		JOINT LeftLeg
		{
			OFFSET	 0.000000	 0.569914	 0.000000
			CHANNELS 3 Zrotation Xrotation Yrotation
			JOINT LeftFoot
			{
				OFFSET	 0.000000	 0.544423	 0.000000
				CHANNELS 3 Zrotation Xrotation Yrotation
				JOINT LeftToeBase
				{
					OFFSET	 0.000000	 0.207117	 0.000000
					CHANNELS 3 Zrotation Xrotation Yrotation
					End Site
					{
						OFFSET	 0.000000	 0.207117	 0.000000
					}
				}
			}
		}
	}
	JOINT RightUpLeg
	{
		OFFSET	-0.124023	-0.065224	 0.008373
		CHANNELS 3 Zrotation Xrotation Yrotation
		JOINT RightLeg
		{
			OFFSET	 0.000000	 0.570047	 0.000000
			CHANNELS 3 Zrotation Xrotation Yrotation
			JOINT RightFoot
			{
				OFFSET	 0.000000	 0.544354	 0.000000
				CHANNELS 3 Zrotation Xrotation Yrotation
				JOINT RightToeBase
				{
					OFFSET	 0.000000	 0.207540	 0.000000
					CHANNELS 3 Zrotation Xrotation Yrotation
					End Site
					{
						OFFSET	 0.000000	 0.207540	 0.000000
					}
				}
			}
		}
	}
	JOINT Spine
	{
		OFFSET	 0.000184	 0.117403	 0.007763
		CHANNELS 3 Zrotation Xrotation Yrotation
		JOINT Spine1
		{
			OFFSET	 0.000000	 0.137269	 0.000000
			CHANNELS 3 Zrotation Xrotation Yrotation
			JOINT Spine2
			{
				OFFSET	 0.000000	 0.156879	 0.000000
				CHANNELS 3 Zrotation Xrotation Yrotation
				JOINT LeftShoulder
				{
					OFFSET	 0.080501	 0.160143	 0.002496
					CHANNELS 3 Zrotation Xrotation Yrotation
					JOINT LeftArm
					{
						OFFSET	 0.000000	 0.164363	 0.000000
						CHANNELS 3 Zrotation Xrotation Yrotation
						JOINT LeftForeArm
						{
							OFFSET	 0.000000	 0.364576	 0.000000
							CHANNELS 3 Zrotation Xrotation Yrotation
							JOINT LeftHand
							{
								OFFSET	 0.000000	 0.360812	 0.000000
								CHANNELS 3 Zrotation Xrotation Yrotation
								JOINT LeftHandIndex1
								{
									OFFSET	 0.000000	 0.086006	 0.000000
									CHANNELS 3 Zrotation Xrotation Yrotation
									JOINT LeftHandIndex2
									{
										OFFSET	 0.000000	 0.047237	 0.000000
										CHANNELS 3 Zrotation Xrotation Yrotation
										JOINT LeftHandIndex3
										{
											OFFSET	-0.004284	 0.038165	 0.000551
											CHANNELS 3 Zrotation Xrotation Yrotation
											End Site
											{
												OFFSET	-0.004284	 0.038165	 0.000551
											}
										}
									}
								}
							}
						}
					}
				}
				JOINT Neck
				{
					OFFSET	 0.000000	 0.176489	 0.000000
					CHANNELS 3 Zrotation Xrotation Yrotation
					JOINT Head
					{
						OFFSET	 0.000000	 0.077941	 0.001747
						CHANNELS 3 Zrotation Xrotation Yrotation
						End Site
						{
							OFFSET	 0.000000	 0.077941	 0.001747
						}
					}
				}
				JOINT RightShoulder
				{
					OFFSET	-0.080363	 0.159706	-0.000306
					CHANNELS 3 Zrotation Xrotation Yrotation
					JOINT RightArm
					{
						OFFSET	 0.000000	 0.164196	 0.000000
						CHANNELS 3 Zrotation Xrotation Yrotation
						JOINT RightForeArm
						{
							OFFSET	 0.000000	 0.365611	 0.000000
							CHANNELS 3 Zrotation Xrotation Yrotation
							JOINT RightHand
							{
								OFFSET	 0.000000	 0.360648	 0.000000
								CHANNELS 3 Zrotation Xrotation Yrotation
								JOINT RightHandIndex1
								{
									OFFSET	 0.000000	 0.069977	 0.000000
									CHANNELS 3 Zrotation Xrotation Yrotation
									JOINT RightHandIndex2
									{
										OFFSET	 0.000000	 0.052305	 0.000000
										CHANNELS 3 Zrotation Xrotation Yrotation
										JOINT RightHandIndex3
										{
											OFFSET	 0.009002	 0.042196	 0.000782
											CHANNELS 3 Zrotation Xrotation Yrotation
											End Site
											{
												OFFSET	 0.009002	 0.042196	 0.000782
											}
										}
									}
								}
							}
						}
					}
				}
			}
		}
	}
}
MOTION
Frames:    6
Frame Time: 0.03333334
-0.006756	 1.232881	 0.011144	 1.997670	 0.380022	 172.234000	-160.265000	 13.205940	-27.287250	 5.756474	-20.650270	 3.170080	-12.147890	 63.381500	 4.300496	 1.162010	 26.689040	-2.659652	 173.832400	 10.602210	 18.841860	-2.543102	-30.357010	 7.796850	 13.869690	 77.596150	-10.170990	-1.288978	 28.372280	 2.710512	 2.193099	 6.340500	 1.493774	 0.555752	 3.830356	 0.883298	 1.399420	-3.296245	 0.536165	-113.190500	 6.484597	 92.935520	 49.788150	 24.884780	-15.735910	 4.078217	-0.210635	-0.055873	-4.632573	 28.067640	 8.237806	 0.565040	 8.640285	-0.355707	-5.949576	 13.580530	 1.518269	 4.986166	-3.509049	-0.334619	 3.185689	-6.825773	 0.871824	-1.253451	-5.439981	 3.472827	 123.455900	 10.374100	-96.383130	-5.939023	 38.911280	-2.906899	-5.069265	-0.199228	 0.029374	-1.413313	 5.361376	-21.997420	-2.309144	 4.849597	 0.896210	 12.531260	 22.804050	-5.136655	-8.499973	 13.024390	-0.520587
-0.006831	 1.232802	 0.011316	 1.967782	 0.242030	 172.131100	-160.087500	 13.309680	-28.225850	 5.759396	-20.711410	 3.093964	-11.790920	 63.273320	 4.156396	 1.161921	 26.687840	-2.659617	 173.595700	 10.745510	 19.662810	-2.547933	-30.417000	 7.753139	 13.340100	 77.573440	-9.695574	-1.288893	 28.371160	 2.710476	 2.196882	 6.144734	 1.805457	 0.412000	 3.893869	 0.932291	 1.468745	-3.344155	 0.555220	-113.151800	 6.490026	 92.939600	 49.578870	 25.023440	-15.578830	 4.100087	-0.210374	 0.103068	-4.352684	 28.067460	 8.338631	 0.595038	 8.547244	-0.355571	-5.949193	 13.601440	 1.520510	 4.987679	-3.475821	-0.333816	 3.184593	-6.826588	 0.878136	-1.254599	-5.458557	 3.521060	 123.430000	 10.378330	-96.380400	-5.768087	 38.882230	-2.981396	-5.072059	-0.198140	-0.129518	-1.608096	 5.414327	-21.789800	-2.319988	 4.883563	 0.895771	 12.537710	 22.893640	-5.158269	-8.500623	 13.097730	-0.525216
-0.006932	 1.232696	 0.011563	 1.919818	 0.082298	 171.927800	-159.893200	 13.402710	-29.373310	 5.797686	-20.778430	 3.065320	-11.534300	 63.177800	 4.127167	 1.161743	 26.685420	-2.659546	 173.333200	 10.939620	 20.471230	-2.554621	-30.507720	 7.666543	 12.735160	 77.546450	-9.152088	-1.288722	 28.368920	 2.710403	 2.194505	 6.026318	 2.314948	 0.107647	 3.809874	 1.145631	 1.613438	-3.342175	 0.598998	-113.073900	 6.500974	 92.947800	 49.370120	 25.183190	-15.383650	 4.152055	-0.210012	 0.423659	-3.995204	 28.102050	 8.577603	 0.655527	 8.359567	-0.355146	-5.948424	 13.643610	 1.525032	 4.990730	-3.408808	-0.332200	 3.182382	-6.828233	 0.890868	-1.256867	-5.495986	 3.618352	 123.377700	 10.386830	-96.374920	-5.582655	 38.913450	-3.033091	-5.104822	-0.197094	-0.450075	-1.885246	 5.426993	-21.358640	-2.341859	 4.952067	 0.894905	 12.550850	 23.074350	-5.201946	-8.501919	 13.245650	-0.534554
-0.007061	 1.232545	 0.011886	 1.855296	-0.093097	 171.625700	-159.681400	 13.483880	-30.586710	 5.827090	-20.874380	 2.951604	-11.380710	 63.105500	 4.209424	 1.161475	 26.681800	-2.659439	 173.056700	 11.180730	 21.222810	-2.563088	-30.627910	 7.537537	 11.918770	 77.518400	-8.393120	-1.288466	 28.365540	 2.710295	 2.193498	 5.914210	 3.143001	-0.362957	 3.726686	 1.416351	 1.838505	-3.360848	 0.663337	-112.957200	 6.517401	 92.960060	 49.164970	 25.357890	-15.149960	 4.233465	-0.209805	 0.904172	-3.559530	 28.177420	 8.964430	 0.746156	 8.078218	-0.354133	-5.947276	 13.706800	 1.531808	 4.995300	-3.308371	-0.329784	 3.179070	-6.830699	 0.909948	-1.260136	-5.552169	 3.764201	 123.299500	 10.399570	-96.366740	-5.383199	 39.009460	-3.061543	-5.168627	-0.196166	-0.930435	-2.242380	 5.393398	-20.691580	-2.374640	 5.054738	 0.893657	 12.570840	 23.345230	-5.267615	-8.503815	 13.467370	-0.548556
-0.007216	 1.232357	 0.012297	 1.778117	-0.288169	 171.223000	-159.444600	 13.554590	-31.914320	 5.863943	-20.994540	 2.798776	-11.328600	 63.058120	 4.400656	 1.161117	 26.676950	-2.659297	 172.769600	 11.472490	 21.920700	-2.573145	-30.775150	 7.365772	 10.887000	 77.483570	-7.416872	-1.288123	 28.361040	 2.710150	 2.200513	 5.806005	 4.262049	-1.017375	 3.647338	 1.795948	 2.150645	-3.404376	 0.748091	-112.801300	 6.539393	 92.976360	 48.961320	 25.544800	-14.873290	 4.343822	-0.209457	 1.545810	-3.037935	 28.300810	 9.515536	 0.867180	 7.702240	-0.352081	-5.945755	 13.791220	 1.540861	 5.001397	-3.174196	-0.326570	 3.174645	-6.833996	 0.935436	-1.264279	-5.627156	 3.959110	 123.194900	 10.416570	-96.355740	-5.167054	 39.175670	-3.069204	-5.263901	-0.195330	-1.572068	-2.679843	 5.305835	-19.765900	-2.418439	 5.191900	 0.892080	 12.598170	 23.707170	-5.355740	-8.506263	 13.763610	-0.567273
-0.007402	 1.232148	 0.012806	 1.691506	-0.503301	 170.722300	-159.180200	 13.612830	-33.346180	 5.907041	-21.134800	 2.607998	-11.377290	 63.036490	 4.696983	 1.160673	 26.670940	-2.659121	 172.477800	 11.811980	 22.560310	-2.584024	-30.940690	 7.153185	 9.646427	 77.433760	-6.232122	-1.287698	 28.355450	 2.709970	 2.219883	 5.702888	 5.672488	-1.866485	 3.576045	 2.294622	 2.554366	-3.477535	 0.852029	-112.607500	 6.566765	 92.996570	 48.758070	 25.737290	-14.550600	 4.484207	-0.209274	 2.342390	-2.428017	 28.480250	 10.243350	 1.017462	 7.234981	-0.348417	-5.943882	 13.896090	 1.552109	 5.008959	-3.007509	-0.322597	 3.169152	-6.838094	 0.967099	-1.269057	-5.720321	 4.201347	 123.064900	 10.437650	-96.342050	-4.936629	 39.416990	-3.055939	-5.388483	-0.194561	-2.368575	-3.193008	 5.155096	-18.565940	-2.472858	 5.362300	 0.890268	 12.633070	 24.156900	-5.465865	-8.509172	 14.131720	-0.590545
